<svg xmlns="http://www.w3.org/2000/svg" viewBox="0 0 284.29297 99.967734">
   <style type="text/css">
      .tc {
         fill: #000;
      }
   </style>
   <g>
      <path class="tc"
         d="m 0,9.331015 h 1.77344 l 2.13281,7.13281 c 0.46484,1.57031 0.78906,2.82031 1.26953,4.3711 h 0.082 c 0.48438,-1.55079 0.82422,-2.80079 1.26953,-4.3711 L 8.6445,9.331015 h 1.71094 L 6.16403,22.549765 H 4.21091 Z m 0,0" />
      <path class="tc" d="m 16.09375,9.331015 h 1.6914 v 13.21875 h -1.6914 z m 0,0" />
      <path class="tc" d="m 25.29687,9.331015 h 1.69141 v 11.78906 H 32.75 v 1.42969 h -7.45313 z m 0,0" />
      <path class="tc" d="m 39.01172,9.331015 h 1.6914 v 11.78906 h 5.76563 v 1.42969 h -7.45703 z m 0,0" />
      <path class="tc"
         d="m 52.72656,9.331015 h 7.61719 v 1.41016 h -5.92188 v 4.15234 h 4.9961 v 1.42969 h -4.9961 v 4.79687 h 6.125 v 1.42969 h -7.82031 z m 0,0" />
      <path class="tc"
         d="m 75.30469,9.331015 h 3.30468 c 4.07032,0 6.2461,2.35547 6.2461,6.54687 0,4.21094 -2.17578,6.67188 -6.16407,6.67188 h -3.38671 z m 3.18359,11.84766 c 3.08203,0 4.63672,-1.95313 4.63672,-5.30079 0,-3.32421 -1.55469,-5.17578 -4.63672,-5.17578 h -1.51172 v 10.47657 z m 0,0" />
      <path class="tc"
         d="m 91.64062,9.331015 h 7.61719 v 1.41016 h -5.92578 v 4.15234 h 4.99609 v 1.42969 h -4.99609 v 4.79687 h 6.125 v 1.42969 h -7.81641 z m 0,0" />
   </g>
   <g>
      <path class="tc"
         d="M 17.08594,48.709925 H 0 v -11.76954 h 48.03125 v 11.76954 H 31.03906 v 50.12109 H 17.08594 Z m 0,0" />
      <path class="tc"
         d="m 54.19922,67.600545 c 0,-20.21875 11.48828,-31.80078 28.09765,-31.80078 16.70703,0 28.09766,11.67578 28.09766,31.80078 0,20.21875 -11.39063,32.36719 -28.09766,32.36719 -16.60937,0 -28.09765,-12.14844 -28.09765,-32.36719 m 41.86328,0 c 0,-12.33984 -5.31641,-19.74219 -13.76563,-19.74219 -8.35156,0 -13.76172,7.40235 -13.76172,19.74219 0,12.43359 5.41016,20.3125 13.76172,20.3125 8.44922,0 13.76563,-7.87891 13.76563,-20.3125" />
      <path class="tc"
         d="m 121.3125,36.940385 h 13.95312 v 34.64844 c 0,12.14844 3.79688,16.32422 10.72657,16.32422 6.92968,0 11.01171,-4.17578 11.01171,-16.32422 v -34.64844 h 13.47657 v 33.22266 c 0,20.78906 -8.44532,29.80469 -24.48828,29.80469 -16.04297,0 -24.67969,-9.01563 -24.67969,-29.80469 z m 0,0" />
      <path class="tc"
         d="m 217.66015,98.831015 -11.86718,-22.30859 h -7.59375 v 22.30859 h -14.04688 v -61.89063 h 22.30469 c 13.10156,0 23.92187,4.55469 23.92187,19.26954 0,9.11328 -4.46093,14.90234 -11.01171,17.84375 l 13.95312,24.77734 z m -19.46093,-33.41406 h 7.11718 c 7.3125,0 11.29688,-3.13282 11.29688,-9.20703 0,-6.07422 -3.98438,-8.16407 -11.29688,-8.16407 h -7.11718 z m 0,0" />
      <path class="tc"
         d="m 246.13672,81.459925 c 4.36328,3.79687 10.05859,6.45703 15.1875,6.45703 5.78906,0 8.63672,-2.28125 8.63672,-5.98438 0,-3.89062 -3.51172,-5.125 -8.92579,-7.40234 l -7.97265,-3.41797 c -6.45313,-2.5625 -12.52735,-7.87891 -12.52735,-16.89453 0,-10.25391 9.20704,-18.41797 22.01954,-18.41797 7.12109,0 14.62109,2.85156 19.9375,8.16406 l -7.02344,8.82813 c -4.08594,-3.13282 -7.97656,-4.9336 -12.91406,-4.9336 -4.74219,0 -7.87891,2.08594 -7.87891,5.60157 0,3.79296 4.08594,5.125 9.49609,7.30468 l 7.87891,3.23047 c 7.49609,3.03516 12.24219,8.06641 12.24219,16.80078 0,10.25 -8.54297,19.17188 -23.25782,19.17188 -8.0625,0 -16.60937,-3.03516 -22.96875,-8.92188 z m 0,0" />
   </g>
   <g>
      <path fill="#4f8fcc"
         d="m 170.51562,22.549765 h -10.39843 c 4.49609,-9.66797 6.3789,-14.02344 7.53125,-22.53906 h 13.19921 c -1.71875,9.09375 -2.77343,12.39843 -10.33203,22.53906" />
      <path fill="#61ab45"
         d="m 110.92578,0.010705 h 13.20703 c 1.14844,8.51562 3.01953,12.87109 7.51953,22.53906 h -10.39062 c -7.5586,-10.14063 -8.61328,-13.44922 -10.33594,-22.53906" />
      <path fill="#c59770"
         d="M 150.38281,22.549765 H 141.25 c 0,0 -2.94922,-12.01172 -2.94922,-22.52344 0,-0.0351 15.16797,-0.0351 15.16797,0 0,10.37891 -3.08594,22.52344 -3.08594,22.52344" />
   </g>
</svg>