<svg xmlns="http://www.w3.org/2000/svg" width="24" height="24" viewBox="0 0 24 24">
  <path d="M22.28 11.42h-8.92l3-2.8h3.99c.22 0 .4-.17.4-.4 0-.2-.18-.4-.4-.4H17.2l2.44-2.3c.16-.14.17-.4.02-.55-.15-.17-.4-.17-.57-.02L16.8 7.08V4.53c0-.22-.18-.4-.4-.4-.22 0-.4.18-.4.4v3.3l-3.22 3.02V2.4c0-.22-.18-.4-.4-.4-.22 0-.4.18-.4.4v8.54l-3.1-2.9v-3.5c0-.23-.16-.4-.4-.4-.2 0-.38.17-.38.4V7.3L5.6 4.94c-.17-.15-.42-.15-.57.02-.16.16-.15.4 0 .56l2.47 2.3H4.58c-.22 0-.4.2-.4.4 0 .23.18.4.4.4h3.78l2.98 2.8H2.4c-.22 0-.4.18-.4.4 0 .22.18.4.4.4h8.93l-3.1 2.9H4.6c-.22 0-.4.18-.4.4 0 .22.18.4.4.4h2.8l-2.34 2.2c-.16.15-.17.4-.02.56.15.16.4.17.56.02l2.54-2.37v2.9c0 .2.17.4.4.4.22 0 .4-.2.4-.4v-3.65l3.08-2.9v8.34c0 .23.18.4.4.4.22 0 .4-.17.4-.4V12.8l3.22 3v3.42c0 .22.18.4.4.4.22 0 .4-.18.4-.4v-2.66l2.28 2.13c.16.14.4.14.57-.03.15-.16.14-.4-.02-.56l-2.34-2.18h3.05c.22 0 .4-.18.4-.4 0-.22-.18-.4-.4-.4h-3.9l-3.1-2.9h8.93c.22 0 .4-.18.4-.4 0-.22-.18-.4-.4-.4"/>
</svg>
