<svg xmlns="http://www.w3.org/2000/svg" width="28" height="28" viewBox="0 0 28 28">
  <g fill="none">
    <path fill="#000" d="M24.4611075,5.73346548 L25.5255335,5.73346548 L25.6228845,6.79343032 C25.6292181,6.86239084 25.6376774,6.98080443 25.645796,7.14494922 C25.7996476,10.2555571 25.3132428,14.0486436 23.6273126,17.7281146 C21.80339,21.7087482 18.8118305,24.8341518 14.4682768,26.735429 L14.0004723,26.9401982 L13.5326618,26.7354424 C9.18879376,24.8341757 6.19699746,21.7087814 4.37291209,17.7281507 C2.68681297,14.048642 2.20035053,10.255521 2.35420147,7.14491164 C2.36231919,6.98078498 2.3707775,6.86238416 2.37711047,6.79343032 L2.47446151,5.73346548 L3.53888749,5.73346548 C5.90577077,5.73346548 8.22653417,4.94490995 10.3959803,3.62088124 C11.163517,3.1524481 11.8554399,2.65018538 12.458082,2.14951617 C12.813501,1.85423745 13.0550237,1.63048753 13.1698053,1.51410578 L14.000454,0.671876626 L14.8311028,1.51410578 C14.9458879,1.63049123 15.1874112,1.85424458 15.542824,2.14952632 C16.1454529,2.65019836 16.8373487,3.15246331 17.6048406,3.62089773 C19.7741409,4.94491821 22.0946435,5.73346548 24.4611075,5.73346548 Z M24.4611075,6.90013215 C18.5044606,6.90013215 14.000454,2.33333333 14.000454,2.33333333 C14.000454,2.33333333 9.49644741,6.90013215 3.53888749,6.90013215 C3.53888749,6.90013215 2.28620209,20.5394583 14.000454,25.6666667 C25.7137929,20.5394583 24.4611075,6.90013215 24.4611075,6.90013215 Z M17.2621922,10.5805335 L18.6900846,12.0084259 L13.1374026,17.5611078 L10.0595944,14.4832996 L11.429421,13.1134731 L13.1214459,14.7212798 L17.2621922,10.5805335 Z"/>
    <path fill="#CED526" d="M15.5990927,6.90715326 C15.0090747,6.54703905 14.4750218,6.18575916 14.0004336,5.83733013 C13.5258105,6.18577195 12.9917128,6.54706493 12.4016391,6.90719118 C10.4615135,8.09126385 8.39404777,8.94518474 6.22539733,9.33936735 C6.25327685,9.75684785 6.29549824,10.1989226 6.35473227,10.6607914 C6.5977325,12.5555508 7.08780096,14.4109317 7.87293499,16.1242992 C9.16265265,18.9388 11.1480039,21.1714489 14.0004046,22.6885101 C16.8524992,21.1714707 18.8376471,18.9388533 20.1272351,16.1243823 C20.9122959,14.4110205 21.4023169,12.5556437 21.6452904,10.6608863 C21.7045246,10.1989651 21.746744,9.75684126 21.7746198,9.33931626 C19.6062709,8.94510619 17.5390452,8.09119254 15.5990927,6.90715326 Z M24.4611075,6.90013215 C24.4611075,6.90013215 25.7137929,20.5394583 14.000454,25.6666667 C2.28620209,20.5394583 3.53888749,6.90013215 3.53888749,6.90013215 C9.49644741,6.90013215 14.000454,2.33333333 14.000454,2.33333333 C14.000454,2.33333333 18.5044606,6.90013215 24.4611075,6.90013215 Z"/>
  </g>
</svg>
