<?xml version="1.0" encoding="UTF-8"?>
<svg width="58px" height="49px" viewBox="0 0 58 49" version="1.1" xmlns="http://www.w3.org/2000/svg" xmlns:xlink="http://www.w3.org/1999/xlink">
    <!-- Generator: Sketch 45.2 (43514) - http://www.bohemiancoding.com/sketch -->
    <title>Icon</title>
    <desc>Created with Sketch.</desc>
    <defs></defs>
    <g id="Landing-Page" stroke="none" stroke-width="1" fill="none" fill-rule="evenodd">
        <g id="Have-a-Car" transform="translate(-165.000000, -1244.000000)" fill-rule="nonzero" fill="#4A4A4A">
            <g id="FEATURES" transform="translate(0.000000, 845.000000)">
                <g id="Features" transform="translate(165.000000, 258.000000)">
                    <g id="Feature-5" transform="translate(0.000000, 140.000000)">
                        <g id="Icon" transform="translate(0.000000, 1.000000)">
                            <g id="noun_945012_cc">
                                <g id="Group">
                                    <path d="M34.2272727,28.5454545 C34.2272727,25.6083038 31.8462416,23.2272727 28.9090909,23.2272727 C25.9719402,23.2272727 23.5909091,25.6083038 23.5909091,28.5454545 C23.5909091,31.4826053 25.9719402,33.8636364 28.9090909,33.8636364 C31.8462416,33.8636364 34.2272727,31.4826053 34.2272727,28.5454545 L34.2272727,28.5454545 Z M25.875,28.5454545 C25.875,26.8634964 27.2384964,25.5 28.9204545,25.5 C30.6024126,25.5 31.9659091,26.8634964 31.9659091,28.5454545 C31.9659091,30.2274126 30.6024126,31.5909091 28.9204545,31.5909091 C28.1107827,31.5939303 27.3332369,31.274405 26.7596432,30.7029437 C26.1860496,30.1314824 25.8636307,29.355132 25.8636364,28.5454545 L25.875,28.5454545 Z" id="Shape"></path>
                                    <path d="M28.9090909,35.2386364 C25.5647884,35.2416465 22.3588229,36.5738323 19.9972422,38.9418071 C17.6356615,41.309782 16.3121493,44.5193379 16.3181818,47.8636364 C16.3181818,48.4912327 16.8269491,49 17.4545455,49 C18.0821418,49 18.5909091,48.4912327 18.5909091,47.8636364 C18.5909091,42.1650619 23.2105164,37.5454545 28.9090909,37.5454545 C34.6076654,37.5454545 39.2272727,42.1650619 39.2272727,47.8636364 C39.2272727,48.4912327 39.7360401,49 40.3636364,49 C40.9912327,49 41.5,48.4912327 41.5,47.8636364 C41.5060326,44.5193379 40.1825204,41.309782 37.8209396,38.9418071 C35.4593589,36.5738323 32.2533934,35.2416465 28.9090909,35.2386364 Z" id="Shape"></path>
                                    <path d="M12.5909091,18.3181818 C14.7450056,18.3181376 16.6863296,17.0186845 17.5074456,15.0272277 C18.3285616,13.0357708 17.8672772,10.7456761 16.3392112,9.22740536 C14.8111451,7.70913462 12.5181313,7.26258691 10.5319961,8.09649258 C8.54586085,8.93039825 7.25891896,10.8800386 7.27272727,13.0340909 C7.29147015,15.9579196 9.66702036,18.3182419 12.5909091,18.3181818 Z M12.5909091,9.96590909 C14.2698984,9.96595584 15.6321241,11.3248602 15.6362695,13.0038444 C15.640415,14.6828285 14.2849162,16.048443 12.6059476,16.0567806 C10.926979,16.0651183 9.55798432,14.7130334 9.54545455,13.0340909 C9.54545455,11.3521328 10.908951,9.98863636 12.5909091,9.98863636 L12.5909091,9.96590909 Z" id="Shape"></path>
                                    <path d="M28.5681818,10.7613636 C31.5053325,10.7613636 33.8863636,8.38033253 33.8863636,5.44318182 C33.8863636,2.5060311 31.5053325,0.125 28.5681818,0.125 C25.6310311,0.125 23.25,2.5060311 23.25,5.44318182 C23.25,8.38033253 25.6310311,10.7613636 28.5681818,10.7613636 Z M28.5681818,2.40909091 C30.2501399,2.40909091 31.6136364,3.77258735 31.6136364,5.45454545 C31.6136364,7.13650356 30.2501399,8.5 28.5681818,8.5 C26.8862237,8.5 25.5227273,7.13650356 25.5227273,5.45454545 C25.5227273,3.77258735 26.8862237,2.40909091 28.5681818,2.40909091 Z" id="Shape"></path>
                                    <path d="M44.6363636,18.3181818 C47.5735144,18.3181818 49.9545455,15.9371507 49.9545455,13 C49.9545455,10.0628493 47.5735144,7.68181818 44.6363636,7.68181818 C41.6992129,7.68181818 39.3181818,10.0628493 39.3181818,13 C39.3181818,15.9371507 41.6992129,18.3181818 44.6363636,18.3181818 Z M44.6363636,9.96590909 C46.3183217,9.96590909 47.6818182,11.3294055 47.6818182,13.0113636 C47.6818182,14.6933217 46.3183217,16.0568182 44.6363636,16.0568182 C42.9544055,16.0568182 41.5909091,14.6933217 41.5909091,13.0113636 C41.6033951,11.3382878 42.9632413,9.98858977 44.6363636,9.98863636 L44.6363636,9.96590909 Z" id="Shape"></path>
                                    <path d="M44.6363636,19.7727273 C43.1916491,19.7748273 41.7579935,20.0246601 40.3977273,20.5113636 C38.6014668,15.5268211 33.8721857,12.2041022 28.5738636,12.2041022 C23.2755416,12.2041022 18.5462605,15.5268211 16.75,20.5113636 C12.9039879,19.1653615 8.64437876,19.7638009 5.31813602,22.1174449 C1.99189328,24.4710888 0.0103108345,28.2889064 0,32.3636364 C7.68583808e-17,32.9912327 0.50876733,33.5 1.13636364,33.5 C1.76395994,33.5 2.27272727,32.9912327 2.27272727,32.3636364 C2.26964532,28.9868431 3.92087267,25.8227134 6.69266995,23.8940139 C9.46446723,21.9653144 13.0052319,21.5167007 16.1704545,22.6931818 C16.0478487,23.3835426 15.9832293,24.0829527 15.9772727,24.7840909 C15.9772727,25.4116872 16.4860401,25.9204545 17.1136364,25.9204545 C17.7412327,25.9204545 18.25,25.4116872 18.25,24.7840909 C18.25,19.0855164 22.8696074,14.4659091 28.5681818,14.4659091 C34.2667563,14.4659091 38.8863636,19.0855164 38.8863636,24.7840909 C38.8863636,25.4116872 39.395131,25.9204545 40.0227273,25.9204545 C40.6503236,25.9204545 41.1590909,25.4116872 41.1590909,24.7840909 C41.1556271,24.0908624 41.0948136,23.3991089 40.9772727,22.7159091 C44.1460397,21.5082787 47.7060823,21.9366178 50.4979592,23.8614239 C53.289836,25.7862301 54.9562744,28.9611885 54.9545455,32.3522727 C54.9545455,32.979869 55.4633128,33.4886364 56.0909091,33.4886364 C56.7185054,33.4886364 57.2272727,32.979869 57.2272727,32.3522727 C57.2147476,25.4055406 51.5831042,19.77898 44.6363636,19.7727273 Z" id="Shape"></path>
                                </g>
                            </g>
                        </g>
                    </g>
                </g>
            </g>
        </g>
    </g>
</svg>