<?xml version="1.0" encoding="UTF-8"?>
<svg width="48px" height="51px" viewBox="0 0 48 51" version="1.1" xmlns="http://www.w3.org/2000/svg" xmlns:xlink="http://www.w3.org/1999/xlink">
    <!-- Generator: Sketch 45.2 (43514) - http://www.bohemiancoding.com/sketch -->
    <title>Icon</title>
    <desc>Created with Sketch.</desc>
    <defs></defs>
    <g id="Landing-Page" stroke="none" stroke-width="1" fill="none" fill-rule="evenodd">
        <g id="Have-a-Car" transform="translate(-1027.000000, -1247.000000)" fill-rule="nonzero" fill="#4A4A4A">
            <g id="FEATURES" transform="translate(0.000000, 845.000000)">
                <g id="Features" transform="translate(165.000000, 258.000000)">
                    <g id="Feature-7" transform="translate(862.000000, 140.000000)">
                        <g id="Icon" transform="translate(0.000000, 4.000000)">
                            <g id="noun_945005_cc">
                                <g id="Group">
                                    <path d="M40.08,24.1 C39.5277153,24.1 39.08,24.5477153 39.08,25.1 L39.08,45 C39.08,47.209139 37.289139,49 35.08,49 L10.08,49 C7.870861,49 6.08,47.209139 6.08,45 L6.08,37.21 L8.67,37.21 C9.22228475,37.21 9.67,36.7622847 9.67,36.21 C9.67,35.6577153 9.22228475,35.21 8.67,35.21 L6.08,35.21 L6.08,32.64 C6.08,32.0877153 5.63228475,31.64 5.08,31.64 C4.52771525,31.64 4.08,32.0877153 4.08,32.64 L4.08,35.21 L1,35.21 C0.44771525,35.21 6.76353751e-17,35.6577153 0,36.21 C-6.76353751e-17,36.7622847 0.44771525,37.21 1,37.21 L4.08,37.21 L4.08,45 C4.08,48.3137085 6.7662915,51 10.08,51 L35.08,51 C38.3937085,51 41.08,48.3137085 41.08,45 L41.08,25.1 C41.08,24.5477153 40.6322847,24.1 40.08,24.1 Z" id="Shape"></path>
                                    <path d="M1,15.79 L8.67,15.79 C9.22228475,15.79 9.67,15.3422847 9.67,14.79 C9.67,14.2377153 9.22228475,13.79 8.67,13.79 L6.08,13.79 L6.08,6 C6.08,3.790861 7.870861,2 10.08,2 L35.08,2 C36.8220422,2.00113137 38.3630325,3.1295731 38.89,4.79 C39.0758221,5.29459747 39.627413,5.56190668 40.13861,5.39509505 C40.6498069,5.22828341 40.9375676,4.68708052 40.79,4.17 C39.9948116,1.68704872 37.6871763,0.00178789608 35.08,0 L10.08,0 C6.7662915,-2.02906125e-16 4.08,2.6862915 4.08,6 L4.08,13.79 L1,13.79 C0.44771525,13.79 6.76353751e-17,14.2377153 0,14.79 C-6.76353751e-17,15.3422847 0.44771525,15.79 1,15.79 Z" id="Shape"></path>
                                    <path d="M1,22.93 L8.67,22.93 C9.22228475,22.93 9.67,22.4822847 9.67,21.93 C9.67,21.3777153 9.22228475,20.93 8.67,20.93 L6.08,20.93 L6.08,18.36 C6.08,17.8077153 5.63228475,17.36 5.08,17.36 C4.52771525,17.36 4.08,17.8077153 4.08,18.36 L4.08,20.93 L1,20.93 C0.44771525,20.93 6.76353751e-17,21.3777153 0,21.93 C-6.76353751e-17,22.4822847 0.44771525,22.93 1,22.93 Z" id="Shape"></path>
                                    <path d="M1,30.07 L8.67,30.07 C9.22228475,30.07 9.67,29.6222847 9.67,29.07 C9.67,28.5177153 9.22228475,28.07 8.67,28.07 L6.08,28.07 L6.08,25.5 C6.08,24.9477153 5.63228475,24.5 5.08,24.5 C4.52771525,24.5 4.08,24.9477153 4.08,25.5 L4.08,28.07 L1,28.07 C0.44771525,28.07 6.76353751e-17,28.5177153 0,29.07 C-6.76353751e-17,29.6222847 0.44771525,30.07 1,30.07 Z" id="Shape"></path>
                                    <path d="M43.82,13.79 L41.25,13.79 L41.25,11.21 C41.25,10.6577153 40.8022847,10.21 40.25,10.21 C39.6977153,10.21 39.25,10.6577153 39.25,11.21 L39.25,13.78 L36.68,13.78 C36.1277153,13.78 35.68,14.2277153 35.68,14.78 C35.68,15.3322847 36.1277153,15.78 36.68,15.78 L39.25,15.78 L39.25,18.35 C39.25,18.9022847 39.6977153,19.35 40.25,19.35 C40.8022847,19.35 41.25,18.9022847 41.25,18.35 L41.25,15.79 L43.82,15.79 C44.3722847,15.79 44.82,15.3422847 44.82,14.79 C44.82,14.2377153 44.3722847,13.79 43.82,13.79 Z" id="Shape"></path>
                                    <path d="M40.08,7.15 C35.8605445,7.15 32.44,10.5705445 32.44,14.79 C32.44,19.0094555 35.8605445,22.43 40.08,22.43 C44.2994555,22.43 47.72,19.0094555 47.72,14.79 C47.714491,10.5728285 44.2971715,7.15550905 40.08,7.15 L40.08,7.15 Z M40.08,20.42 C36.965114,20.42 34.44,17.894886 34.44,14.78 C34.44,11.665114 36.965114,9.14 40.08,9.14 C43.194886,9.14 45.72,11.665114 45.72,14.78 C45.72,17.894886 43.194886,20.42 40.08,20.42 L40.08,20.42 Z" id="Shape"></path>
                                </g>
                            </g>
                        </g>
                    </g>
                </g>
            </g>
        </g>
    </g>
</svg>