<?xml version="1.0" encoding="UTF-8"?>
<svg width="51px" height="51px" viewBox="0 0 51 51" version="1.1" xmlns="http://www.w3.org/2000/svg" xmlns:xlink="http://www.w3.org/1999/xlink">
    <!-- Generator: Sketch 45.2 (43514) - http://www.bohemiancoding.com/sketch -->
    <title>Icon</title>
    <desc>Created with Sketch.</desc>
    <defs></defs>
    <g id="Landing-Page" stroke="none" stroke-width="1" fill="none" fill-rule="evenodd">
        <g id="Have-a-Car" transform="translate(-1030.000000, -1107.000000)" fill-rule="nonzero" fill="#4A4A4A">
            <g id="FEATURES" transform="translate(0.000000, 845.000000)">
                <g id="Features" transform="translate(165.000000, 258.000000)">
                    <g id="Feature-3" transform="translate(865.000000, 0.000000)">
                        <g id="Icon" transform="translate(0.000000, 4.000000)">
                            <g id="noun_936225_cc">
                                <g id="Group">
                                    <path d="M5.46,12.41 C5.78357069,12.4140577 6.08910372,12.2612912 6.28,12 C7.69360056,9.99617954 9.41087623,8.22492272 11.37,6.75 C11.8118278,6.41586773 11.8991323,5.7868278 11.565,5.345 C11.2308677,4.9031722 10.6018278,4.81586773 10.16,5.15 C8.03537174,6.75205361 6.17307683,8.67507553 4.64,10.85 C4.42232792,11.1557113 4.39414746,11.5575605 4.56702169,11.8906596 C4.73989593,12.2237588 5.08471819,12.4320243 5.46,12.43 L5.46,12.41 Z" id="Shape"></path>
                                    <path d="M25.52,-1.35525272e-20 C21.6565435,-0.00988869455 17.8422191,0.865866517 14.37,2.56 C13.8729437,2.80300529 13.6669947,3.40294373 13.91,3.9 C14.1530053,4.39705627 14.7529437,4.60300529 15.25,4.36 C17.0624588,3.47842757 18.9818969,2.83637385 20.96,2.45 L20.96,14.73 C18.1669215,15.9221533 15.9421533,18.1469215 14.75,20.94 L2.45,20.94 C2.82414673,19.0203959 3.43900244,17.1556695 4.28,15.39 C4.47176469,14.9017334 4.2536392,14.3482778 3.78031396,14.1221336 C3.30698873,13.8959893 2.73936906,14.0740332 2.48,14.53 C0.837160422,17.9601412 -0.0105557041,21.7167542 2.71050543e-20,25.52 C-1.04317054e-14,35.8418765 6.21774838,45.1473945 15.7539188,49.0974057 C25.2900892,53.0474168 36.2666962,50.8640339 43.5653651,43.5653651 C50.8640339,36.2666962 53.0474168,25.2900892 49.0974057,15.7539188 C45.1473945,6.21774838 35.8418765,3.16015118e-15 25.52,-1.35525272e-20 Z M36.94,22.95 L48.94,22.95 C49.1308786,24.658017 49.1308786,26.381983 48.94,28.09 L36.94,28.09 C37.136398,27.2460933 37.2535732,26.3856926 37.29,25.52 C37.2691081,24.6529961 37.1517178,23.791016 36.94,22.95 Z M48.59,20.95 L36.3,20.95 C35.1078467,18.1569215 32.8830785,15.9321533 30.09,14.74 L30.09,2.45 C39.4259757,4.31638113 46.7236189,11.6140243 48.59,20.95 L48.59,20.95 Z M22.95,2.14 C23.8035459,2.04739849 24.6614459,2.00066464 25.52,2 C26.3785723,2.00000212 27.236508,2.04673792 28.09,2.14 L28.09,14.14 C26.3989669,13.7490641 24.6410331,13.7490641 22.95,14.14 L22.95,2.14 Z M14.1,22.95 C13.7090641,24.6410331 13.7090641,26.3989669 14.1,28.09 L2.1,28.09 C2.02007548,27.2357813 1.98669279,26.3778464 2,25.52 C2.00066464,24.6614459 2.04739849,23.8035459 2.14,22.95 L14.1,22.95 Z M2.45,30.09 L14.73,30.09 C15.9221533,32.8830785 18.1469215,35.1078467 20.94,36.3 L20.94,48.59 C11.6078979,46.7200205 4.31493347,39.4231118 2.45,30.09 Z M22.95,48.89 L22.95,36.89 C23.7933035,37.0814258 24.655244,37.1786876 25.52,37.18 C26.3856515,37.1431112 27.2460095,37.0259419 28.09,36.83 L28.09,48.83 C26.381983,49.0208786 24.658017,49.0208786 22.95,48.83 L22.95,48.89 Z M30.09,48.58 L30.09,35.58 C30.0786853,35.4937026 30.0786853,35.4062974 30.09,35.32 C30.09,35.32 30.09,35.32 30.09,35.26 C30.0661291,35.1971263 30.0359764,35.136821 30,35.08 C29.945001,34.9705519 29.8622452,34.8774516 29.76,34.81 C29.7072011,34.7676759 29.6502425,34.7308204 29.59,34.7 L29.43,34.65 C29.3568899,34.6419088 29.2831101,34.6419088 29.21,34.65 L29.15,34.65 L29.02,34.65 L28.89,34.65 C27.8095,34.9564365 26.7003169,35.1507949 25.58,35.23 C20.2173151,35.23 15.87,30.8826849 15.87,25.52 C15.87,20.1573151 20.2173151,15.81 25.58,15.81 C30.9426849,15.81 35.29,20.1573151 35.29,25.52 C35.2125111,26.6405267 35.0181218,27.7498863 34.71,28.83 C34.7213147,28.9162974 34.7213147,29.0037026 34.71,29.09 C34.71,29.09 34.71,29.09 34.71,29.15 C34.7033166,29.2164992 34.7033166,29.2835008 34.71,29.35 C34.733058,29.4722646 34.7882869,29.5861742 34.87,29.68 C34.9082515,29.7341876 34.9517993,29.7844351 35,29.83 L35.15,29.93 C35.2099951,29.9665927 35.2736803,29.9967594 35.34,30.02 L35.4,30.02 L35.53,30.02 L35.66,30.02 L48.66,30.02 C46.8088082,39.4031902 39.4731902,46.7388082 30.09,48.59 L30.09,48.58 Z" id="Shape"></path>
                                    <path d="M33.31,31.33 C32.7114502,32.1318359 31.9930377,32.836757 31.18,33.42 C30.8601668,33.7720955 30.8326189,34.3007563 31.1141248,34.6841868 C31.3956308,35.0676173 31.9082704,35.1996849 32.34,35 C33.3199512,34.2996436 34.1866937,33.4531363 34.91,32.49 C35.1243594,32.2041875 35.1699564,31.8257266 35.0296152,31.4971797 C34.8892741,31.1686328 34.5843158,30.9399141 34.2296152,30.8971797 C33.8749147,30.8544453 33.5243594,31.0041875 33.31,31.29 L33.31,31.33 Z" id="Shape"></path>
                                </g>
                            </g>
                        </g>
                    </g>
                </g>
            </g>
        </g>
    </g>
</svg>