<?xml version="1.0" encoding="UTF-8"?>
<svg width="37px" height="50px" viewBox="0 0 37 50" version="1.1" xmlns="http://www.w3.org/2000/svg" xmlns:xlink="http://www.w3.org/1999/xlink">
    <!-- Generator: Sketch 45.2 (43514) - http://www.bohemiancoding.com/sketch -->
    <title>Icon</title>
    <desc>Created with Sketch.</desc>
    <defs></defs>
    <g id="Landing-Page" stroke="none" stroke-width="1" fill="none" fill-rule="evenodd">
        <g id="Have-a-Car" transform="translate(-169.000000, -1107.000000)" fill-rule="nonzero" fill="#4A4A4A">
            <g id="FEATURES" transform="translate(0.000000, 845.000000)">
                <g id="Features" transform="translate(165.000000, 258.000000)">
                    <g id="Feature-1" transform="translate(3.000000, 0.000000)">
                        <g id="Icon" transform="translate(0.000000, 4.000000)">
                            <g id="noun_936333_cc">
                                <g id="Group">
                                    <path d="M36.4509804,1.96078431 L1.96078431,1.96078431 C1.41932868,1.96078431 0.980392157,1.52184779 0.980392157,0.980392157 C0.980392157,0.43893652 1.41932868,9.94637869e-17 1.96078431,0 L36.4509804,0 C36.992436,3.31545956e-17 37.4313725,0.43893652 37.4313725,0.980392157 C37.4313725,1.52184779 36.992436,1.96078431 36.4509804,1.96078431 Z" id="Shape"></path>
                                    <path d="M11.5784314,22.3333333 C11.3178402,22.33484 11.0673714,22.2325358 10.8823529,22.0490196 C6.96078431,18.1960784 4.10784314,12.4215686 2.35294118,8.25490196 C2.19999276,7.9297571 2.23716928,7.54699319 2.44982907,7.25735858 C2.66248887,6.96772397 3.0165544,6.81763097 3.37257992,6.86619246 C3.72860545,6.91475395 4.02953989,7.15418821 4.15686275,7.49019608 C5.53921569,10.7843137 8.43137255,16.8431373 12.2647059,20.6666667 C12.5475098,20.9471475 12.6325116,21.3708498 12.4797754,21.7387074 C12.3270393,22.1065649 11.9669265,22.3454536 11.5686275,22.3431373 L11.5784314,22.3333333 Z" id="Shape"></path>
                                    <path d="M19.2058824,26.0980392 C17.3048874,26.0655348 15.4521168,25.4944055 13.8627451,24.4509804 C13.4898997,24.2199167 13.315908,23.7693105 13.4367124,23.3476347 C13.5575168,22.925959 13.9437162,22.63584 14.3823529,22.6372549 L14.3823529,22.6372549 L23.6764706,22.6960784 C29.4803922,18.9705882 33.6764706,9.04901961 35.0392157,5.49019608 L1.96078431,5.49019608 C1.41932868,5.49019608 0.980392157,5.05125956 0.980392157,4.50980392 C0.980392157,3.96834828 1.41932868,3.52941176 1.96078431,3.52941176 L36.4509804,3.52941176 C36.7672554,3.52859464 37.0644992,3.68040589 37.2492495,3.9371117 C37.4339999,4.1938175 37.4835624,4.52388424 37.3823529,4.82352941 C37.1372549,5.54901961 32.3529412,19.6078431 24.5098039,24.5098039 L24.3921569,24.5784314 C22.8366814,25.5536961 21.0417217,26.0796295 19.2058824,26.0980392 Z" id="Shape"></path>
                                    <path d="M36.4509804,46.7058824 L1.96078431,46.7058824 C1.64450926,46.7066995 1.34726555,46.5548882 1.16251516,46.2981824 C0.977764769,46.0414766 0.928202355,45.7114099 1.02941176,45.4117647 C1.32352941,44.5392157 8.2745098,24.1372549 19.2058824,24.1372549 C30.1372549,24.1372549 37.0882353,44.5392157 37.3823529,45.4117647 C37.4835624,45.7114099 37.4339999,46.0414766 37.2492495,46.2981824 C37.0644992,46.5548882 36.7672554,46.7066995 36.4509804,46.7058824 L36.4509804,46.7058824 Z M3.3627451,44.745098 L35.0490196,44.745098 C33.3627451,40.3235294 27.2941176,26.1176471 19.2058824,26.1176471 C11.1176471,26.1176471 5.04901961,40.3235294 3.3627451,44.745098 Z" id="Shape"></path>
                                    <path d="M36.4509804,50 L1.96078431,50 C1.41932868,50 0.980392157,49.5610635 0.980392157,49.0196078 C0.980392157,48.4781522 1.41932868,48.0392157 1.96078431,48.0392157 L36.4509804,48.0392157 C36.992436,48.0392157 37.4313725,48.4781522 37.4313725,49.0196078 C37.4313725,49.5610635 36.992436,50 36.4509804,50 Z" id="Shape"></path>
                                </g>
                            </g>
                        </g>
                    </g>
                </g>
            </g>
        </g>
    </g>
</svg>