<svg xmlns="http://www.w3.org/2000/svg" width="24" height="24" viewBox="0 0 24 24">
  <g fill="none">
    <path fill="#96960B" d="M12,24 C5.372583,24 0,18.627417 0,12 C0,5.372583 5.372583,0 12,0 C18.627417,0 24,5.372583 24,12 C24,18.627417 18.627417,24 12,24 Z M12,23 C18.0751322,23 23,18.0751322 23,12 C23,5.92486775 18.0751322,1 12,1 C5.92486775,1 1,5.92486775 1,12 C1,18.0751322 5.92486775,23 12,23 Z"/>
    <path fill="#CED526" d="M12,23 C5.92486775,23 1,18.0751322 1,12 C1,5.92486775 5.92486775,1 12,1 C18.0751322,1 23,5.92486775 23,12 C23,18.0751322 18.0751322,23 12,23 Z M12,21.2 C17.0810197,21.2 21.2,17.0810197 21.2,12 C21.2,6.9189803 17.0810197,2.8 12,2.8 C6.9189803,2.8 2.8,6.9189803 2.8,12 C2.8,17.0810197 6.9189803,21.2 12,21.2 Z"/>
    <path fill="#231F20" d="M15.0018587,15.7466074 C14.8341019,15.3704245 14.5970879,15.0246475 14.2989764,14.7288786 L12.009747,12.4611317 L9.72126801,14.7288002 C9.42280071,15.0246314 9.18557042,15.3704479 9.01769501,15.7466867 L9.01848116,15.7463613 C10.9447643,14.9490538 13.0749809,14.9490538 15.0012704,15.7463639 L15.0018587,15.7466074 Z M9.38762152,9.0466558 L14.6322304,9.0466558 C15.0395303,8.49728362 15.2717237,7.83305264 15.2920274,7.14260585 L8.72743071,7.14260585 C8.74774332,7.83316658 8.98001645,8.49734369 9.38762152,9.0466558 Z M7.92727545,17.45 C7.92641912,17.4393148 7.92598269,17.4285112 7.92598269,17.4176057 L7.92598269,17.1166057 C7.92598269,16.0063818 8.36931383,14.942428 9.15813479,14.1605741 L11.2576956,12.0801057 L9.15823807,9.99973974 C8.36951843,9.21876024 7.92598269,8.15411042 7.92598269,7.04360584 L7.92598269,6.75884211 L7.51349478,6.75884211 C7.29258088,6.75884211 7.11349478,6.57975601 7.11349478,6.35884211 C7.11349478,6.13792821 7.29258088,5.95884211 7.51349478,5.95884211 L16.2809946,5.95884211 C16.5019085,5.95884211 16.6809946,6.13792821 16.6809946,6.35884211 C16.6809946,6.57975601 16.5019085,6.75884211 16.2809946,6.75884211 L16.0934826,6.75884211 L16.0934826,7.04360584 C16.0934826,8.15383176 15.6501504,9.2184852 14.8619888,9.99967873 L12.7618537,12.0801058 L14.8622074,14.1607495 C15.6503551,14.9427035 16.0934826,16.0066604 16.0934826,17.1166057 L16.0934826,17.4176057 C16.0934826,17.4285112 16.0930461,17.4393148 16.0921898,17.45 L16.3937626,17.45 C16.6146764,17.45 16.7937626,17.6290861 16.7937626,17.85 C16.7937626,18.0709139 16.6146764,18.25 16.3937626,18.25 L7.6262627,18.25 C7.4053488,18.25 7.2262627,18.0709139 7.2262627,17.85 C7.2262627,17.6290861 7.4053488,17.45 7.6262627,17.45 L7.92727545,17.45 Z"/>
  </g>
</svg>
