<?xml version="1.0" encoding="UTF-8"?>
<svg width="24px" height="24px" viewBox="0 0 24 24" version="1.1" xmlns="http://www.w3.org/2000/svg" xmlns:xlink="http://www.w3.org/1999/xlink">
    <!-- Generator: Sketch 46.1 (44463) - http://www.bohemiancoding.com/sketch -->
    <title>Immediate pickup</title>
    <desc>Created with Sketch.</desc>
    <defs>
        <rect id="path-1" x="0" y="0" width="24" height="24"></rect>
        <circle id="path-3" cx="12" cy="12" r="11"></circle>
    </defs>
    <g id="Page-1" stroke="none" stroke-width="1" fill="none" fill-rule="evenodd">
        <g id="Landing-page_1-Copy-2" transform="translate(-24.000000, -529.000000)">
            <g id="Immediate-pickup" transform="translate(24.000000, 529.000000)">
                <mask id="mask-2" fill="white">
                    <use xlink:href="#path-1"></use>
                </mask>
                <g id="Mask"></g>
                <g id="Oval-2" mask="url(#mask-2)">
                    <use fill="#FFFFFF" fill-rule="evenodd" xlink:href="#path-3"></use>
                    <circle stroke="#96960B" stroke-width="1" cx="12" cy="12" r="11.5"></circle>
                    <circle stroke="#CED526" stroke-width="1.8" cx="12" cy="12" r="10.1"></circle>
                </g>
                <path d="M6.84649616,12.8844417 C6.84649616,15.6845256 9.11641263,17.9544421 11.9164965,17.9544421 C14.7165804,17.9544421 16.9864969,15.6845256 16.9864969,12.8844417 C16.9864969,10.0843578 14.7165804,7.81444136 11.9164965,7.81444136 C9.11641263,7.81444136 6.84649616,10.0843578 6.84649616,12.8844417 Z M11.9164965,12.8844417 L14.7618831,15.4981837 C13.6387779,16.6226862 11.5276754,16.9541199 10.183238,16.2087985 C8.8388006,15.4634771 8.18763658,14.1968578 8.19149633,12.649806 C8.19535608,11.1027541 9.63645779,9.05249564 11.9164965,9.01100334 L11.9164965,12.8844417 Z M10.7464964,7.03444131 C10.5311054,7.03444131 10.3564964,6.85983235 10.3564964,6.64444128 L10.3564964,5.86444123 C10.3564964,5.64905016 10.5311054,5.4744412 10.7464964,5.4744412 L13.0864966,5.4744412 C13.3018877,5.4744412 13.4764966,5.64905016 13.4764966,5.86444123 L13.4764966,6.64444128 C13.4764966,6.85983235 13.3018877,7.03444131 13.0864966,7.03444131 L10.7464964,7.03444131 Z M17.6520969,8.15764139 C17.8041727,8.30990652 17.8041727,8.55657629 17.6520969,8.70884142 L17.1008969,9.26004146 C16.9486317,9.41211723 16.701962,9.41211723 16.5496968,9.26004146 L15.5408968,8.25124139 C15.388821,8.09897626 15.388821,7.85230649 15.5408968,7.70004135 L16.0920968,7.14884132 C16.2443619,6.99676555 16.4910317,6.99676555 16.6432968,7.14884132 L17.6520969,8.15764139 Z M6.3645619,8.14870085 C6.21248614,8.30096599 6.21248614,8.54763575 6.3645619,8.69990089 L6.91576194,9.25110093 C7.06802708,9.40317669 7.31469685,9.40317669 7.46696198,9.25110093 L8.47576205,8.24230086 C8.62783782,8.09003572 8.62783782,7.84336595 8.47576205,7.69110082 L7.92456201,7.13990078 C7.77229688,6.98782501 7.52562711,6.98782501 7.37336197,7.13990078 L6.3645619,8.14870085 Z" id="Shape" fill="#000000" fill-rule="nonzero" mask="url(#mask-2)"></path>
            </g>
        </g>
    </g>
</svg>