<?xml version="1.0" encoding="UTF-8"?>
<svg width="51px" height="51px" viewBox="0 0 51 51" version="1.1" xmlns="http://www.w3.org/2000/svg" xmlns:xlink="http://www.w3.org/1999/xlink">
    <!-- Generator: Sketch 45.2 (43514) - http://www.bohemiancoding.com/sketch -->
    <title>Icon</title>
    <desc>Created with Sketch.</desc>
    <defs></defs>
    <g id="Landing-Page" stroke="none" stroke-width="1" fill="none" fill-rule="evenodd">
        <g id="Have-a-Car" transform="translate(-610.000000, -1108.000000)" fill-rule="nonzero" fill="#4A4A4A">
            <g id="FEATURES" transform="translate(0.000000, 845.000000)">
                <g id="Features" transform="translate(165.000000, 258.000000)">
                    <g id="Feature-2" transform="translate(445.000000, 0.000000)">
                        <g id="Icon" transform="translate(0.000000, 4.000000)">
                            <g id="noun_945024_cc">
                                <g id="Group">
                                    <path d="M23.92,25.9607547 C23.92,26.502619 24.3592678,26.9418868 24.9011321,26.9418868 C25.4429964,26.9418868 25.8822642,26.502619 25.8822642,25.9607547 L25.8822642,14.4030189 L30.650566,18.3275472 C30.9204701,18.551883 31.2895534,18.6151858 31.618786,18.4936099 C31.9480185,18.3720341 32.187382,18.0840499 32.2467105,17.7381382 C32.306039,17.3922265 32.1763191,17.0409396 31.9064151,16.8166038 L25.509434,11.5675472 L25.509434,11.5675472 L25.509434,11.5675472 L25.509434,11.5675472 C25.4549968,11.5220311 25.3957824,11.4825549 25.3328302,11.4498113 L25.2445283,11.4498113 L25.1464151,11.4498113 C25.0585192,11.4378358 24.9694053,11.4378358 24.8815094,11.4498113 L24.8128302,11.4498113 C24.7039826,11.461523 24.5978627,11.4913692 24.4988679,11.5381132 L24.4203774,11.5381132 L24.2928302,11.6166038 L17.9154717,16.9343396 C17.4982362,17.2811328 17.4411314,17.9005004 17.7879245,18.3177358 C18.1347177,18.7349713 18.7540853,18.7920762 19.1713208,18.445283 L23.9396226,14.5207547 L23.92,25.9607547 Z" id="Shape"></path>
                                    <path d="M50.0377358,22.7328302 C50.0377358,22.7328302 50.0377358,22.7328302 50.0377358,22.6641509 C50.0260695,22.5658929 49.9996066,22.4699649 49.9592453,22.3796226 L49.9592453,22.3796226 C49.9053085,22.2723733 49.832147,22.1759331 49.7433962,22.0950943 L49.7433962,22.0950943 L39.9320755,13.6769811 L39.9320755,8.29056604 C39.9320755,7.74870175 39.4928077,7.30943396 38.9509434,7.30943396 L32.5735849,7.30943396 L25.4113208,1.21660377 C25.0425272,0.896923311 24.4948313,0.896923311 24.1260377,1.21660377 L17.1698113,7.30943396 L10.9003774,7.30943396 C10.3585131,7.30943396 9.91924528,7.74870175 9.91924528,8.29056604 L9.91924528,13.6475472 L0.333584906,22.0460377 L0.333584906,22.0460377 C0.244834121,22.1268765 0.171672614,22.2233167 0.117735849,22.330566 L0.117735849,22.3796226 C0.0773745171,22.4699649 0.050911624,22.5658929 0.039245283,22.6641509 C0.039245283,22.6641509 0.039245283,22.6641509 0.039245283,22.7328302 C0.039245283,22.8015094 0.039245283,22.7328302 0.039245283,22.7328302 L0.039245283,50.0377358 C0.0404994004,50.148205 0.0604019353,50.2576689 0.0981132075,50.3615094 L0.0981132075,50.3615094 L0.0981132075,50.44 C0.137328613,50.5181884 0.186823877,50.5907814 0.245283019,50.6558491 L0.323773585,50.7343396 C0.383327021,50.7879681 0.449226786,50.8340979 0.52,50.8716981 L0.618113208,50.8716981 C0.727996873,50.9446574 0.851463484,50.9947114 0.981132075,51.0188679 L48.5660377,51.0188679 C48.6571569,51.0317515 48.7496355,51.0317515 48.8407547,51.0188679 C48.9124854,51.0268065 48.9848731,51.0268065 49.0566038,51.0188679 C49.5984681,51.0188679 50.0377358,50.5796001 50.0377358,50.0377358 L50.0377358,22.7818868 C50.0377358,22.7818868 50.0377358,22.7524528 50.0377358,22.7328302 Z M39.8732075,16.1984906 L47.3003774,22.5660377 L39.8732075,26.3532075 L39.8732075,16.1984906 Z M24.7833962,3.25735849 L29.5026415,7.30943396 L20.1524528,7.30943396 L24.7833962,3.25735849 Z M11.8815094,9.27169811 L37.9109434,9.27169811 L37.9109434,27.3539623 L28.9041509,31.9456604 L25.4113208,29.0022642 C25.0441576,28.6882158 24.5030122,28.6882158 24.1358491,29.0022642 L20.6822642,31.9456604 L11.8520755,27.3735849 L11.8815094,9.27169811 Z M9.91924528,16.2573585 L9.91924528,26.3237736 L2.70792453,22.5660377 L9.91924528,16.2573585 Z M1.96226415,24.3909434 L19.0830189,33.2898113 L1.96226415,47.9086792 L1.96226415,24.3909434 Z M3.64,49.0566038 L21.4475472,33.8490566 L21.4475472,33.8490566 L24.7735849,31.0135849 L45.9071698,49.0566038 L3.64,49.0566038 Z M48.0754717,48.330566 L30.5132075,33.3584906 L48.0754717,24.3811321 L48.0754717,48.330566 Z" id="Shape"></path>
                                </g>
                            </g>
                        </g>
                    </g>
                </g>
            </g>
        </g>
    </g>
</svg>