<svg xmlns="http://www.w3.org/2000/svg" width="28" height="28" viewBox="0 0 28 28">
  <g fill="none">
    <path fill="#000" d="M14,26.6666667 C7.00439317,26.6666667 1.33333333,20.9956068 1.33333333,14 C1.33333333,7.00439317 7.00439317,1.33333333 14,1.33333333 C20.9956068,1.33333333 26.6666667,7.00439317 26.6666667,14 C26.6666667,20.9956068 20.9956068,26.6666667 14,26.6666667 Z M14,25.6666667 C20.4433221,25.6666667 25.6666667,20.4433221 25.6666667,14 C25.6666667,7.55667792 20.4433221,2.33333333 14,2.33333333 C7.55667792,2.33333333 2.33333333,7.55667792 2.33333333,14 C2.33333333,20.4433221 7.55667792,25.6666667 14,25.6666667 Z M15.9710265,14.3617504 C16.2866352,14.0581242 16.7924003,14.0581242 17.1026552,14.3677583 C17.4198579,14.6835878 17.4198579,15.1908928 17.1026552,15.5067223 L14.3923749,18.2052698 C14.0803889,18.5159052 13.5702232,18.5159052 13.2589649,18.2052698 L10.5486846,15.5067223 C10.2314819,15.1908928 10.2314819,14.6835878 10.5486846,14.3677583 C10.8606706,14.0571229 11.3708363,14.0571229 11.6820945,14.3677583 L13.8735762,16.549753 L13.0207906,16.9040725 L13.0207906,9.70378807 C13.0207906,9.26067419 13.3777206,8.89819492 13.823355,8.89819492 C14.2675885,8.89819492 14.6302769,9.25931319 14.6302769,9.70378807 L14.6302769,16.9040725 L13.7771608,16.5500823 L15.9710265,14.3617504 Z"/>
    <path fill="#CED526" d="M14,23.3666667 C19.1730672,23.3666667 23.3666667,19.1730672 23.3666667,14 C23.3666667,8.82693284 19.1730672,4.63333333 14,4.63333333 C8.82693284,4.63333333 4.63333333,8.82693284 4.63333333,14 C4.63333333,19.1730672 8.82693284,23.3666667 14,23.3666667 Z M14,25.6666667 C7.55667792,25.6666667 2.33333333,20.4433221 2.33333333,14 C2.33333333,7.55667792 7.55667792,2.33333333 14,2.33333333 C20.4433221,2.33333333 25.6666667,7.55667792 25.6666667,14 C25.6666667,20.4433221 20.4433221,25.6666667 14,25.6666667 Z"/>
  </g>
</svg>
