<?xml version="1.0" encoding="UTF-8"?>
<svg width="24px" height="24px" viewBox="0 0 24 24" version="1.1" xmlns="http://www.w3.org/2000/svg" xmlns:xlink="http://www.w3.org/1999/xlink">
    <!-- Generator: Sketch 46.1 (44463) - http://www.bohemiancoding.com/sketch -->
    <title>Multi</title>
    <desc>Created with Sketch.</desc>
    <defs>
        <rect id="path-1" x="0" y="0" width="24" height="24"></rect>
        <circle id="path-3" cx="11" cy="11" r="11"></circle>
    </defs>
    <g id="Page-1" stroke="none" stroke-width="1" fill="none" fill-rule="evenodd">
        <g id="Landing-page_1-Copy-2" transform="translate(-24.000000, -466.000000)">
            <g id="Multi" transform="translate(24.000000, 466.000000)">
                <mask id="mask-2" fill="white">
                    <use xlink:href="#path-1"></use>
                </mask>
                <g id="Mask"></g>
                <g id="Group" mask="url(#mask-2)">
                    <g transform="translate(1.000000, 1.000000)">
                        <g id="Oval-2">
                            <use fill="#FFFFFF" fill-rule="evenodd" xlink:href="#path-3"></use>
                            <circle stroke="#96960B" stroke-width="1" cx="11" cy="11" r="11.5"></circle>
                            <circle stroke="#CED526" stroke-width="1.8" cx="11" cy="11" r="10.1"></circle>
                        </g>
                        <g id="Group-32" stroke-width="1" fill-rule="evenodd" transform="translate(5.153164, 5.165507)">
                            <path d="M10.8866994,10.7068194 C8.03384327,10.7068194 5.97652543,10.7068194 4.55009739,10.7068194 M2.33573492,10.6676408 C1.24081948,10.4655459 0.411299975,9.50570392 0.411299975,8.3518195 C0.411299975,7.05101958 1.46669991,5.99621964 2.76809984,5.99741964 C3.82586407,5.99820514 4.42014408,5.99967508 4.85720186,5.99999964 M7.08261759,6.00062359 C7.56023578,6.00097827 8.27666307,6.00151029 9.23189945,6.00221964 C10.5332994,6.00341964 11.5886993,4.94921971 11.5886993,3.64781978 C11.5886993,2.47338962 10.7285832,1.49966955 9.60397184,1.32228056 M7.43997758,1.29341992 C6.17097681,1.29341992 4.35390143,1.29341992 1.81589989,1.29341992" id="Stroke-2" stroke="#231F20" stroke-linecap="round" stroke-linejoin="round"></path>
                            <path d="M11.1503993,10.7068194 C11.1503993,11.2882193 10.6787994,11.7598193 10.0973994,11.7598193 C9.51539943,11.7598193 9.04379946,11.2882193 9.04379946,10.7068194 C9.04379946,10.1248194 9.51539943,9.65321942 10.0973994,9.65321942 C10.6787994,9.65321942 11.1503993,10.1248194 11.1503993,10.7068194" id="Fill-4" fill="#FFFFFF"></path>
                            <path d="M11.1503993,10.7068194 C11.1503993,11.2882193 10.6787994,11.7598193 10.0973994,11.7598193 C9.51539943,11.7598193 9.04379946,11.2882193 9.04379946,10.7068194 C9.04379946,10.1248194 9.51539943,9.65321942 10.0973994,9.65321942 C10.6787994,9.65321942 11.1503993,10.1248194 11.1503993,10.7068194 Z" id="Stroke-6" stroke="#231F20" stroke-width="0.8" stroke-linecap="round" stroke-linejoin="round"></path>
                            <path d="M2.86931983,1.29347992 C2.86931983,1.87547989 2.39771986,2.34647986 1.81571989,2.34647986 C1.23371993,2.34647986 0.762119955,1.87547989 0.762119955,1.29347992 C0.762119955,0.711479958 1.23371993,0.239879986 1.81571989,0.239879986 C2.39771986,0.239879986 2.86931983,0.711479958 2.86931983,1.29347992" id="Fill-8" fill="#FFFFFF"></path>
                            <path d="M2.86931983,1.29347992 C2.86931983,1.87547989 2.39771986,2.34647986 1.81571989,2.34647986 C1.23371993,2.34647986 0.762119955,1.87547989 0.762119955,1.29347992 C0.762119955,0.711479958 1.23371993,0.239879986 1.81571989,0.239879986 C2.39771986,0.239879986 2.86931983,0.711479958 2.86931983,1.29347992 Z" id="Stroke-10" stroke="#231F20" stroke-width="0.8" stroke-linecap="round" stroke-linejoin="round"></path>
                            <path d="M2.05427988,1.29347992 C2.05427988,1.42487992 1.94747988,1.53167991 1.81607989,1.53167991 C1.6840799,1.53167991 1.57727991,1.42487992 1.57727991,1.29347992 C1.57727991,1.16147993 1.6840799,1.05527994 1.81607989,1.05527994 C1.94747988,1.05527994 2.05427988,1.16147993 2.05427988,1.29347992" id="Fill-12" fill="#000000"></path>
                            <path d="M10.3359594,10.7068194 C10.3359594,10.8382194 10.2285594,10.9450193 10.0977594,10.9450193 C9.96575941,10.9450193 9.85835941,10.8382194 9.85835941,10.7068194 C9.85835941,10.5748194 9.96575941,10.4686194 10.0977594,10.4686194 C10.2285594,10.4686194 10.3359594,10.5748194 10.3359594,10.7068194" id="Fill-16" fill="#000000"></path>
                            <path d="M9.61463943,1.29347992 C9.61463943,1.87547989 9.14303946,2.34647986 8.56103949,2.34647986 C7.97903952,2.34647986 7.50743955,1.87547989 7.50743955,1.29347992 C7.50743955,0.711479958 7.97903952,0.239879986 8.56103949,0.239879986 C9.14303946,0.239879986 9.61463943,0.711479958 9.61463943,1.29347992" id="Fill-20"></path>
                            <path d="M9.61463943,1.29347992 C9.61463943,1.87547989 9.14303946,2.34647986 8.56103949,2.34647986 C7.97903952,2.34647986 7.50743955,1.87547989 7.50743955,1.29347992 C7.50743955,0.711479958 7.97903952,0.239879986 8.56103949,0.239879986 C9.14303946,0.239879986 9.61463943,0.711479958 9.61463943,1.29347992 Z" id="Stroke-22" stroke="#231F20" stroke-width="0.5" fill="#231F20" stroke-linecap="round" stroke-linejoin="round"></path>
                            <path d="M4.49237973,10.7068194 C4.49237973,11.2882193 4.02077976,11.7598193 3.4387798,11.7598193 C2.85677983,11.7598193 2.38517986,11.2882193 2.38517986,10.7068194 C2.38517986,10.1248194 2.85677983,9.65321942 3.4387798,9.65321942 C4.02077976,9.65321942 4.49237973,10.1248194 4.49237973,10.7068194" id="Fill-24"></path>
                            <path d="M4.49237973,10.7068194 C4.49237973,11.2882193 4.02077976,11.7598193 3.4387798,11.7598193 C2.85677983,11.7598193 2.38517986,11.2882193 2.38517986,10.7068194 C2.38517986,10.1248194 2.85677983,9.65321942 3.4387798,9.65321942 C4.02077976,9.65321942 4.49237973,10.1248194 4.49237973,10.7068194 Z" id="Stroke-26" stroke="#231F20" stroke-width="0.5" fill="#231F20" stroke-linecap="round" stroke-linejoin="round"></path>
                            <path d="M7.05353958,5.99999964 C7.05353958,6.58199961 6.58193961,7.05359958 5.99993964,7.05359958 C5.41793968,7.05359958 4.94633971,6.58199961 4.94633971,5.99999964 C4.94633971,5.41799968 5.41793968,4.94639971 5.99993964,4.94639971 C6.58193961,4.94639971 7.05353958,5.41799968 7.05353958,5.99999964" id="Fill-28"></path>
                            <path d="M7.05353958,5.99999964 C7.05353958,6.58199961 6.58193961,7.05359958 5.99993964,7.05359958 C5.41793968,7.05359958 4.94633971,6.58199961 4.94633971,5.99999964 C4.94633971,5.41799968 5.41793968,4.94639971 5.99993964,4.94639971 C6.58193961,4.94639971 7.05353958,5.41799968 7.05353958,5.99999964 Z" id="Stroke-30" stroke="#231F20" stroke-width="0.5" fill="#231F20" stroke-linecap="round" stroke-linejoin="round"></path>
                        </g>
                    </g>
                </g>
            </g>
        </g>
    </g>
</svg>