<svg xmlns="http://www.w3.org/2000/svg" width="24" height="24" viewBox="0 0 24 24">
  <path d="M22.45 12.4c.55.33.87.9.87 1.53v.57c0 .47-.2.93-.53 1.26-.34.33-.78.5-1.25.5h-.8c-.3.66-.96 1.12-1.72 1.12-.77 0-1.42-.46-1.73-1.1H6.12c-.3.64-.96 1.1-1.72 1.1-.78 0-1.44-.47-1.74-1.13l-.1.02c-.9 0-1.56-.6-1.56-1.4v-1.64c0-.24.12-.45.3-.58l.02-.75c0-.36.1-.7.3-1 .46-.7 1.3-1.6 1.75-2.1.2-.2.46-.35.76-.4.85-.14 3.9-.58 6.97-.32 3.43.3 6.48 2.45 7.03 2.86 2.1.32 3.5.97 4.32 1.46zm.07 2.1v-.57c0-.35-.18-.66-.48-.85-.77-.45-2.1-1.06-4.13-1.36-.06 0-.12-.04-.17-.08-.04-.02-3.23-2.46-6.7-2.76-2.98-.26-5.94.18-6.77.3-.12.03-.23.1-.3.18-.36.37-1.23 1.3-1.67 2-.12.15-.18.35-.18.55l-.02 1.03c0 .2-.13.34-.3.38v1.56c0 .34.28.58.7.6 0-1.04.85-1.88 1.9-1.88 1.04 0 1.9.84 1.9 1.9h10.83c0-1.06.85-1.9 1.9-1.9 1.04 0 1.9.84 1.9 1.9h.62c.26 0 .5-.1.68-.3.2-.17.3-.42.3-.68zM9.2 9.16c.2 0 .37.14.4.34l.34 2c.02.12-.02.24-.1.33-.08.1-.2.13-.3.13h-.02l-4.57-.3c-.13 0-.25-.07-.32-.2-.07-.1-.07-.25 0-.37l.5-1.05c.26-.5.75-.78 1.33-.8l2.73-.1zm3.75.52c.86.35 2.96 1.43 3.8 2.04.16.1.2.3.15.46-.06.16-.2.26-.37.26h-.04l-5.66-.48c-.18 0-.33-.14-.36-.32l-.37-1.87c0-.12.02-.24.1-.33.07-.1.2-.15.3-.15.07 0 1.5 0 2.45.38zm-1.74 1.5l3.64.32c-.82-.45-1.72-.88-2.2-1.07-.48-.2-1.18-.28-1.64-.32l.2 1.1zm-5.6-.27l3.46.23-.2-1.15-2.38.08c-.3 0-.5.13-.62.35l-.26.5zM4.4 16.6c.6 0 1.1-.5 1.1-1.1 0-.6-.5-1.1-1.1-1.1-.6 0-1.1.5-1.1 1.1 0 .6.5 1.1 1.1 1.1zm14.63 0c.6 0 1.1-.5 1.1-1.1 0-.6-.5-1.1-1.1-1.1-.6 0-1.1.5-1.1 1.1 0 .6.5 1.1 1.1 1.1z"/>
</svg>
