<svg xmlns="http://www.w3.org/2000/svg" width="28" height="28" viewBox="0 0 28 28">
  <g fill="none">
    <path fill="#000" d="M14,26.6666667 C7.00439317,26.6666667 1.33333333,20.9956068 1.33333333,14 C1.33333333,7.00439317 7.00439317,1.33333333 14,1.33333333 C20.9956068,1.33333333 26.6666667,7.00439317 26.6666667,14 C26.6666667,20.9956068 20.9956068,26.6666667 14,26.6666667 Z M14,25.6666667 C20.4433221,25.6666667 25.6666667,20.4433221 25.6666667,14 C25.6666667,7.55667792 20.4433221,2.33333333 14,2.33333333 C7.55667792,2.33333333 2.33333333,7.55667792 2.33333333,14 C2.33333333,20.4433221 7.55667792,25.6666667 14,25.6666667 Z M12.8239204,8.15375434 L12.8239204,10.2060083 L13.9489204,10.8497038 L15.0739204,10.2060083 L15.0739204,8.15375434 C15.9597954,8.58820691 16.5739204,9.51428363 16.5739204,10.5921741 C16.5739204,11.6701933 15.9597954,12.59627 15.0739204,13.0307226 L15.0739204,18.8073708 C15.0739204,19.4493923 14.5721704,19.9662543 13.9489204,19.9662543 C13.3256704,19.9662543 12.8239204,19.4493923 12.8239204,18.8073708 L12.8239204,13.0307226 C11.9381704,12.59627 11.3239204,11.6701933 11.3239204,10.5921741 C11.3239204,9.51428363 11.9380454,8.58820691 12.8239204,8.15375434 Z"/>
    <path fill="#CED526" d="M14,23.3666667 C19.1730672,23.3666667 23.3666667,19.1730672 23.3666667,14 C23.3666667,8.82693284 19.1730672,4.63333333 14,4.63333333 C8.82693284,4.63333333 4.63333333,8.82693284 4.63333333,14 C4.63333333,19.1730672 8.82693284,23.3666667 14,23.3666667 Z M14,25.6666667 C7.55667792,25.6666667 2.33333333,20.4433221 2.33333333,14 C2.33333333,7.55667792 7.55667792,2.33333333 14,2.33333333 C20.4433221,2.33333333 25.6666667,7.55667792 25.6666667,14 C25.6666667,20.4433221 20.4433221,25.6666667 14,25.6666667 Z"/>
  </g>
</svg>
