<?xml version="1.0" encoding="UTF-8"?>
<svg width="51px" height="49px" viewBox="0 0 51 49" version="1.1" xmlns="http://www.w3.org/2000/svg" xmlns:xlink="http://www.w3.org/1999/xlink">
    <!-- Generator: Sketch 45.2 (43514) - http://www.bohemiancoding.com/sketch -->
    <title>Icon</title>
    <desc>Created with Sketch.</desc>
    <defs></defs>
    <g id="Landing-Page" stroke="none" stroke-width="1" fill="none" fill-rule="evenodd">
        <g id="Have-a-Car" transform="translate(-606.000000, -1244.000000)" fill-rule="nonzero" fill="#4A4A4A">
            <g id="FEATURES" transform="translate(0.000000, 845.000000)">
                <g id="Features" transform="translate(165.000000, 258.000000)">
                    <g id="Feature-6" transform="translate(441.000000, 140.000000)">
                        <g id="Icon" transform="translate(0.000000, 1.000000)">
                            <g id="noun_936326_cc">
                                <g id="Group">
                                    <path d="M10.63,17.09 C10.0777153,17.1286599 9.59865997,16.7122847 9.56000004,16.16 C9.52134011,15.6077153 9.93771527,15.12866 10.49,15.09 L15.86,14.31 C16.2533207,14.2528092 16.5934739,14.0061047 16.77,13.65 L19.08,9 C19.3449553,8.5481062 19.9137392,8.37726642 20.3838419,8.60837839 C20.8539447,8.83949035 21.0660247,9.39421853 20.87,9.88 L18.55,14.57 C18.0836316,15.5144124 17.1823849,16.1688446 16.14,16.32 L10.77,17.1 L10.63,17.09 Z" id="Shape"></path>
                                    <path d="M11.72,48.82 C10.77498,48.8187479 9.8785262,48.4011418 9.26956716,47.6784847 C8.66060811,46.9558277 8.4010237,46.001553 8.56,45.07 L10.8,32 C10.866463,31.6074733 10.735588,31.2073698 10.45,30.93 L1,21.7 C0.1282058,20.8466304 -0.184506247,19.5728432 0.19299319,18.4127747 C0.570492627,17.2527063 1.57294786,16.4068894 2.78,16.23 L7.53,15.54 C7.88726559,15.4881965 8.24502945,15.630927 8.4685254,15.9144263 C8.69202135,16.1979256 8.74729504,16.5791235 8.6135254,16.9144263 C8.47975576,17.2497291 8.17726559,17.4881965 7.82,17.54 L3,18.21 C2.54599039,18.2775116 2.16926887,18.5960983 2.02730203,19.0325934 C1.88533518,19.4690885 2.00256873,19.9483304 2.33,20.27 L11.81,29.51 C12.5665069,30.2468616 12.9107485,31.3095205 12.73,32.35 L10.53,45.4 C10.4561972,45.8514182 10.6432574,46.3058692 11.0134567,46.5745281 C11.3836561,46.8431871 11.8737098,46.8801273 12.28,46.67 L24,40.51 C24.9380517,40.0122117 26.0619483,40.0122117 27,40.51 L38.72,46.67 C39.1262902,46.8801273 39.6163439,46.8431871 39.9865433,46.5745281 C40.3567426,46.3058692 40.5438028,45.8514182 40.47,45.4 L38.23,32.35 C38.0492515,31.3095205 38.3934931,30.2468616 39.15,29.51 L48.63,20.27 C48.9561037,19.9538526 49.077695,19.4817088 48.9448637,19.0473718 C48.8120325,18.6130347 48.4471534,18.2896659 48,18.21 L34.86,16.3 C33.8176151,16.1488446 32.9163684,15.4944124 32.45,14.55 L26.58,2.67 C26.3741509,2.26254163 25.9565043,2.00561891 25.5,2.00561891 C25.0434957,2.00561891 24.6258491,2.26254163 24.42,2.67 L22.5,6.56 C22.2350447,7.0118938 21.6662608,7.18273358 21.1961581,6.95162161 C20.7260553,6.72050965 20.5139753,6.16578147 20.71,5.68 L22.63,1.79 C23.1721898,0.698216656 24.2860002,0.00775172912 25.505,0.00775172912 C26.7239998,0.00775172912 27.8378102,0.698216656 28.38,1.79 L34.24,13.67 C34.4165261,14.0261047 34.7566793,14.2728092 35.15,14.33 L48.26,16.24 C49.4558631,16.4319947 50.4418471,17.2807462 50.8096039,18.4347416 C51.1773607,19.588737 50.8642703,20.8514793 50,21.7 L40.52,30.94 C40.248443,31.2209414 40.1292631,31.6157246 40.2,32 L42.44,45.05 C42.642698,46.2514721 42.1476848,47.4641263 41.1620966,48.1805323 C40.1765084,48.8969384 38.870281,48.9935731 37.79,48.43 L26.06,42.28 C25.7091369,42.0968182 25.2908631,42.0968182 24.94,42.28 L13.22,48.44 C12.7584673,48.6870874 12.2435061,48.8175443 11.72,48.82 Z" id="Shape"></path>
                                    <path d="M32.67,25.41 L18.33,25.41 C17.7777153,25.41 17.33,24.9622847 17.33,24.41 C17.33,23.8577153 17.7777153,23.41 18.33,23.41 L32.67,23.41 C33.2222847,23.41 33.67,23.8577153 33.67,24.41 C33.67,24.9622847 33.2222847,25.41 32.67,25.41 Z" id="Shape"></path>
                                    <path d="M25.5,32.58 C24.9477153,32.58 24.5,32.1322847 24.5,31.58 L24.5,17.24 C24.5,16.6877153 24.9477153,16.24 25.5,16.24 C26.0522847,16.24 26.5,16.6877153 26.5,17.24 L26.5,31.58 C26.5,32.1322847 26.0522847,32.58 25.5,32.58 Z" id="Shape"></path>
                                </g>
                            </g>
                        </g>
                    </g>
                </g>
            </g>
        </g>
    </g>
</svg>