<svg xmlns="http://www.w3.org/2000/svg" width="28" height="28" viewBox="0 0 28 28">
  <g fill="none">
    <path fill="#000" d="M13.239218,27.1837959 C6.32738723,22.6678048 2.79401726,17.5006657 2.79401726,11.7051571 C2.79401726,5.54136775 7.75423152,0.540452295 13.8773506,0.540452295 C20.0004697,0.540452295 24.9606839,5.54136775 24.9606839,11.7051571 C24.9606839,17.549334 21.425446,22.7192048 14.5104895,27.1870405 L13.8737997,27.5984134 L13.239218,27.1837959 Z M13.8773506,26.207119 C20.4884617,21.9356014 23.7940173,17.1016141 23.7940173,11.7051571 C23.7940173,6.18357538 19.3539936,1.70711896 13.8773506,1.70711896 C8.4007076,1.70711896 3.96068393,6.18357538 3.96068393,11.7051571 C3.96068393,17.0536221 7.26623948,21.8876094 13.8773506,26.207119 Z M14.0125249,8.47120189 L17.5119407,16.6378686 L14.0125249,14.699872 L10.5119407,16.6378686 L14.0125249,8.47120189 Z"/>
    <path fill="#CED526" d="M21.1106839,11.7051571 C21.1106839,7.66065293 17.8670986,4.39045229 13.8773506,4.39045229 C9.88760256,4.39045229 6.64401726,7.66065293 6.64401726,11.7051571 C6.64401726,15.6532607 8.96701219,19.3904704 13.884921,22.9567706 C18.7929921,19.4285524 21.1106839,15.6942212 21.1106839,11.7051571 Z M13.8773506,26.207119 C7.26623948,21.8876094 3.96068393,17.0536221 3.96068393,11.7051571 C3.96068393,6.18357538 8.4007076,1.70711896 13.8773506,1.70711896 C19.3539936,1.70711896 23.7940173,6.18357538 23.7940173,11.7051571 C23.7940173,17.1016141 20.4884617,21.9356014 13.8773506,26.207119 Z"/>
  </g>
</svg>
