<svg xmlns="http://www.w3.org/2000/svg" xmlns:xlink="http://www.w3.org/1999/xlink" width="24" height="24" viewBox="0 0 24 24">
  <defs>
    <rect id="trusted-a" width="24" height="24"/>
    <rect id="trusted-c" width="24" height="24"/>
  </defs>
  <g fill="none" fill-rule="evenodd">
    <mask id="trusted-b" fill="#fff">
      <use xlink:href="#trusted-a"/>
    </mask>
    <g mask="url(#trusted-b)">
      <circle cx="11" cy="11" r="11" fill="#FFF" transform="translate(1 1)"/>
      <circle cx="12" cy="12" r="11.5" stroke="#96960B"/>
      <circle cx="12" cy="12" r="10.1" stroke="#CED526" stroke-width="1.8"/>
    </g>
    <g>
      <mask id="trusted-d" fill="#fff">
        <use xlink:href="#trusted-c"/>
      </mask>
      <g mask="url(#trusted-d)" opacity=".86">
        <g transform="translate(4 6.5)">
          <path fill="#242424" fill-rule="nonzero" d="M14.3970645,8.55496683 L14.5891649,7.46224238 L15.5852134,5.35176342 C15.7537272,5.02494989 15.6560017,4.59303435 15.3715954,4.42502457 C14.5177501,3.92176242 13.6826982,3.40699274 12.8877388,2.76870903 C12.075239,2.1166163 11.2877969,1.41389048 10.4283136,0.854625065 C9.63335426,0.33601955 8.7412958,0.0345225565 7.8498638,0 C6.95780535,0.0345225565 6.06574689,0.33601955 5.2707875,0.854625065 C4.41193066,1.41389048 3.62386217,2.1166163 2.81198875,2.76870903 C2.01702936,3.40699274 1.181351,3.92176242 0.328132175,4.42502457 C0.0437258988,4.59303435 -0.0546260513,5.02494989 0.1138878,5.35176342 L1.10993621,7.46224238 L1.28534096,8.75185165"/>
          <polygon fill="#FFF" fill-rule="nonzero" stroke="#FFF" stroke-linecap="round" stroke-linejoin="round" stroke-width=".5" points="7.014 4.327 7.17 3.348 6.475 2.661 7.428 2.512 7.849 1.62 8.283 2.506 9.239 2.641 8.552 3.338 8.722 4.314 7.865 3.859"/>
          <g transform="translate(0 7)">
            <path fill="#242424" d="M0.26810806,1.71291856 C0.26810806,1.71291856 6.81321109,6.7095546 13.3777339,1.65098909 C13.3777339,1.65098909 6.75495165,-0.79403388 0.26810806,1.71291856 L0.26810806,1.71291856 Z" transform="translate(1)"/>
            <path stroke="#FFF" stroke-width=".5" d="M1.11640733,1.91163164 L0.761496601,1.64068712 L1.17798723,1.47972715 C1.30988372,1.42875347 1.44248248,1.3795446 1.57576919,1.33208515 C5.14239735,0.06211482 8.93905477,0.08081293 12.5052291,0.87265443 C13.0378876,0.99092714 13.5179708,1.11774342 13.9379102,1.24472836 C14.1912986,1.32135015 14.369296,1.38138092 14.4643177,1.41646138 L14.8884563,1.5730464 L14.5303308,1.84901479 C10.7941399,4.7280918 6.80734867,4.7422097 3.08918337,3.0415102 C2.55230554,2.79594074 2.06910703,2.53271981 1.64683469,2.2691324 C1.39182618,2.10995305 1.21257607,1.98504838 1.11640733,1.91163164 Z"/>
          </g>
          <path stroke="#FFF" stroke-linecap="round" stroke-width=".8" d="M1.10987357,7.6699241 C1.10987357,7.6699241 7.38121989,3.98969702 14.5897287,7.6699241"/>
        </g>
      </g>
    </g>
  </g>
</svg>
