<?xml version="1.0" encoding="utf-8"?>
<!-- Generator: Adobe Illustrator 24.1.3, SVG Export Plug-In . SVG Version: 6.00 Build 0)  -->
<svg version="1.1" id="_x2014_ÎÓÈ_x5F_1" xmlns="http://www.w3.org/2000/svg" xmlns:xlink="http://www.w3.org/1999/xlink"
	 x="0px" y="0px" viewBox="0 0 395.952 413.471" enable-background="new 0 0 395.952 413.471" xml:space="preserve">
<g>
	
		<ellipse transform="matrix(0.7071 -0.7071 0.7071 0.7071 -92.4982 200.6993)" fill="#DADADA" cx="196.016" cy="212.005" rx="189.995" ry="189.995"/>
	<path fill="#1D1D1B" d="M261.208,273.502c-3.636-2.308-6.151-6.038-6.894-10.28c-1.25-7.135-1.522-16.641-1.562-22.321
		c6.801-8.12,11.244-18.18,12.704-28.998c0.251-1.857,0.533-4.292,0.831-6.869c0.431-3.715,0.916-7.896,1.458-11.711
		c1.536,0.922,3.086,1.388,4.617,1.389c0.001,0,0.001,0,0.001,0c2.439,0,4.84-1.181,7.138-3.511c3.403-3.451,5.395-8.192,5.61-13.35
		c0.228-5.473,1.04-13.247,3.618-19.198c1.678-3.875,2.592-8.421,2.64-13.147c0.067-6.536-1.389-9.987-4.327-10.256
		c-1.326-0.122-2.596,0.407-3.641,0.923c-0.56,0.277-1.108,0.583-1.649,0.902c0.575-1.953,1.146-3.907,1.723-5.857
		c2.007-6.777,3.734-13.639,4.978-20.599c1.596-8.931,3.292-18.066,2.243-27.082c-3.343-28.754-17.765-29.517-15.025-30.884
		c2.74-1.367,8.465,0.547,8.465,0.547c-12.083-26.937-36.213-26.101-36.213-26.101c2.323-3.007,9.156-2.733,9.156-2.733
		c-9.019-7.653-20.429-4.581-20.429-4.581c3.115-5.762,16.975-5.451,16.975-5.451c-11.992-6.074-29.746,0-29.746,0
		c0-4.361,7.943-7.164,7.943-7.164c-7.842-1.076-23.82,1.97-24.221,2.047c2.786-5.517,9.271-6.563,9.271-6.563
		c-19.623-4.049-40.912,12.053-40.912,12.053c0.586-2.369,5.751-6.77,5.751-6.77c-19.389,3.385-30.08,16.8-30.08,16.8
		c-19.242,3.443-32.813,14.989-32.813,14.989c7.292-3.848,13.166-1.62,13.166-1.62c-11.14,0.405-24.711,20.458-24.711,20.458
		c3.443-2.633,6.192-3.241,6.192-3.241c-10.676,9.115-11.76,34.029-11.76,34.029c1.522-6.279,5.829-6.813,5.829-6.813
		c-8.517,8.369-4.077,37.174,0.09,52.979c-0.654-0.207-1.348-0.331-2.058-0.266c-2.939,0.269-4.395,3.72-4.328,10.256
		c0.049,4.725,0.962,9.272,2.641,13.147c2.578,5.95,3.391,13.724,3.618,19.198c0.215,5.158,2.207,9.9,5.611,13.35
		c3.739,3.791,7.771,4.512,11.755,2.122c0.541,3.809,1.025,7.984,1.454,11.693c0.3,2.584,0.583,5.025,0.834,6.886
		c1.456,10.791,5.882,20.827,12.655,28.937c-0.038,5.672-0.308,15.22-1.562,22.382c-0.743,4.242-3.258,7.972-6.894,10.28
		c-5.408,3.433-60.622,25.273-95.222,41.175c0.078,0.121,0.16,0.248,0.245,0.38C70.215,367.374,129.071,402,196.016,402
		c67.16,0,126.181-34.847,159.97-87.446c0.013-0.02,0.027-0.042,0.039-0.062C321.53,298.653,266.616,276.935,261.208,273.502z"/>
</g>
<g>
</g>
<g>
</g>
<g>
</g>
<g>
</g>
<g>
</g>
<g>
</g>
</svg>
