<?xml version="1.0" encoding="UTF-8"?>
<svg width="95px" height="39px" viewBox="0 0 95 39" version="1.1" xmlns="http://www.w3.org/2000/svg" xmlns:xlink="http://www.w3.org/1999/xlink">
    <!-- Generator: Sketch 46 (44423) - http://www.bohemiancoding.com/sketch -->
    <title>ola logo</title>
    <desc>Created with Sketch.</desc>
    <defs></defs>
    <g id="Landing-Page" stroke="none" stroke-width="1" fill="none" fill-rule="evenodd">
        <g id="Have-a-Car" transform="translate(-150.000000, -5437.000000)">
            <g id="Footer" transform="translate(0.000000, 5221.000000)">
                <g id="T&amp;C" transform="translate(150.000000, 215.000000)">
                    <g id="ola-logo">
                        <g id="capsule" transform="translate(0.000000, 1.428571)">
                            <path d="M75.4087715,37.9611741 L19.3398619,37.9611741 C9.08415824,37.9611741 0.769360955,29.5271562 0.769360955,19.122558 L0.769360955,19.122558 C0.769360955,8.71795982 9.08415824,0.283941964 19.3398619,0.283941964 L75.4087715,0.283941964 C85.6652893,0.283941964 93.9792725,8.71795982 93.9792725,19.122558 L93.9792725,19.122558 C93.9792725,29.5271562 85.6652893,37.9611741 75.4087715,37.9611741" id="Fill-12" fill="#FEFEFE"></path>
                            <path d="M75.4087715,37.9611741 L19.3398619,37.9611741 C9.08415824,37.9611741 0.769360955,29.5271562 0.769360955,19.122558 L0.769360955,19.122558 C0.769360955,8.71795982 9.08415824,0.283941964 19.3398619,0.283941964 L75.4087715,0.283941964 C85.6652893,0.283941964 93.9792725,8.71795982 93.9792725,19.122558 L93.9792725,19.122558 C93.9792725,29.5271562 85.6652893,37.9611741 75.4087715,37.9611741 L75.4087715,37.9611741 Z" id="Stroke-14" stroke="#D0D2D3" stroke-width="0.714285714"></path>
                        </g>
                        <g id="logotype" transform="translate(42.727273, 11.428571)" fill="#231F20">
                            <polygon id="Fill-16" points="33.5244304 7.8648125 38.163531 16.4598795 42.2571859 16.4598795 33.5332668 0.312848214 24.7723956 16.4598795 28.7977693 16.4491429"></polygon>
                            <path d="M8.13790627,12.6919085 C5.82518408,12.6886049 3.95187107,10.7584933 3.954281,8.38074777 C3.95829753,6.00300223 5.83562708,4.07784598 8.14834927,4.08032366 C10.4626781,4.08362723 12.3343845,6.01373884 12.3311712,8.39231027 C12.3287613,10.7700558 10.4498252,12.6952121 8.13790627,12.6919085 M8.15316911,0.311774554 C3.81771873,0.307645089 0.296018801,3.91679688 0.290395649,8.37579241 C0.284772496,12.8356138 3.79602943,16.4546763 8.13228312,16.4596317 C12.4693401,16.4645871 15.9902367,12.8562612 15.9958599,8.39643973 C16.001483,3.9374442 12.4894228,0.318381696 8.15316911,0.311774554" id="Fill-18"></path>
                            <polygon id="Fill-20" points="20.7901595 12.6943862 20.8038157 0.312600446 17.3230845 0.312600446 17.3078216 11.8767522 17.3046084 16.4596317 23.2330175 16.4596317 25.3376831 12.6943862"></polygon>
                        </g>
                        <g id="logomark" transform="translate(5.696970, 5.714286)">
                            <path d="M26.1483124,13.7585533 C26.034389,6.11455495 18.6293669,0.965176511 11.4080663,2.00004144 C9.29326262,2.53034936 6.99233051,3.61671612 5.35969562,5.1134881 C4.56704537,5.64379602 4.19318402,6.64969116 3.40053377,7.4455554 C0.2283282,12.2183267 0.770667847,18.3116371 4.73632594,22.0229879 C5.2281221,22.5170836 5.7792868,23.0087651 6.35933349,23.4489448 C3.04432252,21.4186461 1.56732949,18.3349739 1.03541945,14.6002864 C1.03541945,13.2741142 1.30017105,11.9479421 1.56412038,10.6225746 C3.41497476,4.7891875 9.22988269,0.547528846 15.5742938,1.60814469 C16.6316957,1.87289629 17.6882953,2.13845261 18.7456971,2.40400893 C20.0670483,2.93351213 21.3892017,3.72937637 22.4466036,4.7891875 C23.5040055,5.84980334 24.2966557,7.1759755 25.089306,8.50134295 C25.6188092,9.56195879 25.8827585,10.8873262 26.1467078,11.9479421 C26.1900308,12.5514792 26.1868217,13.1566257 26.1483124,13.7585533 M14.4928236,25.6369679 C17.3256658,25.1814986 19.7180575,23.5672381 21.6595693,21.3768008 C22.1882702,20.5817413 22.6086637,19.8430119 23.1373646,19.0479524 C23.7840003,17.4256447 23.7422819,15.9787651 23.9460604,14.9551662 C24.210812,13.0986861 23.5954651,11.6059377 23.0667642,10.0142092 C22.2741139,8.15853388 21.2231303,6.77039858 19.3730782,5.70978274 C14.7046249,2.75245101 8.35540012,3.58372276 5.31316352,8.00563782 C5.30112936,8.0096614 5.21207655,8.12795467 5.04680737,8.35327518 C5.26502687,7.44153182 5.7937278,6.91041918 6.32162645,6.38011126 C7.90853151,5.05474382 9.75858361,3.99412798 11.872585,3.46382005 C14.2521404,3.19906845 16.6316957,3.46382005 18.7456971,4.5244359 C21.9179027,6.38011126 24.0327064,9.29720719 24.560605,12.7438063 L24.560605,15.9248491 C23.9115625,21.1361907 19.5391496,25.1002223 14.4928236,25.6369679 M26.4892803,12.2754615 C26.4395391,11.6236415 26.2790836,10.7698377 26.0327844,9.94017537 C25.5393837,8.274413 24.6969922,6.70280243 23.4855531,5.33880861 C22.8766244,4.65479991 22.1754338,4.02229304 21.135682,3.27551648 C19.9659613,2.66956525 19.2912459,2.28652038 18.794636,1.98958013 C18.2980262,1.6934446 17.6882953,1.34339309 16.895645,1.07783677 C15.9369233,0.846078526 14.9790039,0.721347527 14.0331186,0.697206044 C13.0872333,0.67306456 12.1525799,0.749512592 11.2419949,0.91769826 C10.2872845,1.07783677 9.49383201,1.34339309 8.43643016,1.60814469 C6.05767712,2.66876053 4.20762501,4.25968429 2.62152223,6.38011126 C-2.92943637,14.3347301 2.0928213,25.4703917 11.3446864,26.7965639 C12.8714206,27.0146419 14.3853184,26.9245137 15.8318249,26.5849235 L16.8491129,26.3032729 C16.8876222,26.2912022 16.9269338,26.2767173 16.9654431,26.2638418 L18.1335593,25.8115913 C18.1913233,25.7858404 18.2490873,25.7576754 18.306049,25.7311197 L18.7906247,25.4969473 C19.7220689,25.0213601 20.5997606,24.4387457 21.3996314,23.7643935 C20.6727679,24.4500117 19.8777108,25.0567676 19.0264943,25.5677624 L19.0682127,25.6063887 L19.0666081,25.6079982 C19.2230523,25.5581058 19.3802987,25.5098228 19.5391496,25.4703917 C19.5391496,25.4703917 19.5391496,25.7351433 19.5118722,25.6772038 C19.2519343,25.8655073 19.6578867,25.7013452 20.1745535,25.4204993 C20.6952316,25.138044 21.1910392,24.8073056 21.6531511,24.4097759 C22.3142278,23.8352086 22.9087155,23.2163819 23.7238295,22.2056584 C24.560605,20.6976204 25.6188092,19.372253 26.1001757,17.6010728 C26.2614335,17.1303139 26.4098549,16.5734503 26.5125464,16.0029066 C26.6152379,15.4315582 26.6713974,14.8473342 26.6730019,14.2462113 C26.6738042,13.6450884 26.6208539,13.0286758 26.4892803,12.2754615" id="Fill-22" fill="#231F20"></path>
                            <path d="M19.5673096,13.8773294 C19.5673096,17.1629853 16.874866,19.8265957 13.55103,19.8265957 C10.2296008,19.8265957 7.53635494,17.1629853 7.53635494,13.8773294 C7.53635494,10.5916735 10.2296008,7.92806319 13.55103,7.92806319 C16.874866,7.92806319 19.5673096,10.5916735 19.5673096,13.8773294" id="Fill-24" fill="#FEFEFE"></path>
                            <path d="M19.3133887,14.9077684 C19.1978608,15.4074971 19.0815305,15.9072258 18.9660025,16.4077593 C18.7285284,17.0338284 18.3675035,17.6623117 17.8789164,18.1684781 C17.3911316,18.6746446 16.776587,19.0584942 16.1636469,19.4431485 C15.6718508,19.6998529 15.0524925,19.8342405 14.5590918,19.9678234 C14.2670627,19.9935743 13.9244902,19.8632103 13.6316589,19.8479207 C17.2234556,19.75055 19.698482,16.3184358 19.15534,12.9193149 C18.8913907,11.9279046 18.3795376,11.0644443 17.744936,10.2042027 C17.4906141,9.83483803 16.9899928,9.59422791 16.6121201,9.22727736 C14.3529064,7.77235062 11.380468,8.07170501 9.67402356,9.96761619 C9.44056078,10.2098357 9.20950484,10.4818298 9.00412178,10.7666993 C9.90668406,9.40753377 11.3652247,8.44831216 13.1190035,8.16666152 C13.7391641,8.15620021 14.3617315,8.26966518 14.9842989,8.38393487 C17.7280882,9.20876889 19.7594551,11.912615 19.3133887,14.9077684 M12.6849713,19.2524307 C10.2203746,18.9860697 8.32379038,16.9259965 8.05663195,14.5287471 C8.28207195,15.8677948 9.06910626,16.8938078 10.1241013,17.803137 C10.4995672,18.0453566 11.0515342,18.3873609 11.4278024,18.6303852 C12.0527766,18.8677764 12.4346607,19.132528 13.0572281,19.245993 C13.0580304,19.2467977 13.0588327,19.245993 13.059635,19.2467977 C12.9344797,19.2484072 12.8101266,19.2508213 12.6849713,19.2524307 M15.7344284,9.83725217 C16.2855931,10.1647716 16.363414,10.2114452 16.0737918,10.0054378 C16.5022081,10.1011991 16.7549255,10.3458328 17.0068407,10.5896617 C17.6398377,11.325977 18.1508885,12.1894374 18.4156401,13.1800429 C18.5584455,14.2985983 18.4533472,15.4203726 17.9735852,16.4238536 C17.1303914,17.9326963 15.7825651,18.9506622 14.1739985,19.2274845 C13.9894747,19.2307034 13.8049508,19.2339223 13.6212293,19.2363364 C14.0705047,19.1486224 14.3673474,18.8557057 15.1912865,18.5466947 C16.0753964,18.2135422 17.0950912,16.706309 17.5764578,15.8267542 C19.0253711,13.4367474 17.3349722,11.2278016 15.7344284,9.83725217 M19.6022087,12.8629848 C19.5195741,12.4147579 19.3896051,12.0429791 19.256427,11.5480786 C18.7413648,10.4367657 17.9824102,9.57732887 16.9771564,8.84825607 C13.2112654,6.29811069 8.03978412,8.75088542 7.49343309,13.1172751 C7.27842269,14.835344 7.87611949,16.5067394 8.9495669,17.7733625 C8.62143537,17.4273346 8.26923551,17.0660171 8.02534312,16.6596354 L7.99164747,16.6998712 C8.02935451,16.8036796 8.15049843,16.8567909 8.17857814,16.9638181 C8.17857814,16.9638181 8.05502739,16.9662323 8.08150255,16.9525521 C7.99244974,16.8318447 8.07187522,17.0217577 8.20665786,17.2631725 C8.34304505,17.5053921 8.50189601,17.7363456 8.6920358,17.9504001 C8.96561245,18.2569969 9.26004832,18.5330145 9.73981032,18.9080122 C10.4522328,19.2902524 11.0804162,19.7771057 11.9131803,19.9903554 C12.1346089,20.0627799 12.3969537,20.1279619 12.6641121,20.1714166 C12.9320728,20.2156759 13.2064518,20.238208 13.4872489,20.2333797 C13.7688483,20.2293561 14.056866,20.1995816 14.4082636,20.1311807 C14.7131291,20.1030157 15.1110587,20.0209346 15.4969543,19.8978131 C16.273559,19.6523747 17.002027,19.2435789 17.6310126,18.6625738 C17.9463077,18.3704619 18.3763285,17.9962689 18.7180988,17.499759 C18.9916754,16.9453096 19.0253711,16.663659 19.1601537,16.4270725 C19.2949363,16.1912906 19.4537873,15.9007881 19.5725244,15.5257904 C19.6728091,15.0727352 19.7241548,14.6212895 19.727364,14.1754768 C19.7313753,13.729664 19.6880524,13.290289 19.6022087,12.8629848" id="Fill-26" fill="#D7DF23"></path>
                        </g>
                        <g id="seperator" transform="translate(37.030303, 0.000000)">
                            <path d="M0.426570991,0.631767857 L0.426570991,37.567125" id="Fill-28" fill="#FEFEFE"></path>
                            <path d="M1,3 L1,37.9353571" id="Stroke-30" stroke="#D0D2D3" stroke-width="0.714285714"></path>
                        </g>
                    </g>
                </g>
            </g>
        </g>
    </g>
</svg>